<?xml version="1.0" encoding="iso-8859-1"?>
<!-- Uploaded to: SVG Repo, www.svgrepo.com, Generator: SVG Repo Mixer Tools -->
<svg height="800px" width="800px" version="1.1" id="Layer_1" xmlns="http://www.w3.org/2000/svg" xmlns:xlink="http://www.w3.org/1999/xlink" 
	 viewBox="0 0 512 512" xml:space="preserve">
<path style="fill:#B27214;" d="M499.971,264.42l-30.58,121.151c-2.477,9.8-11.286,16.664-21.393,16.664H64.001
	c-10.107,0-18.916-6.864-21.393-16.664L12.029,264.42c2.017,1.097,235.297-37.432,243.965-37.432
	C264.662,226.989,497.954,265.517,499.971,264.42z"/>
<path style="fill:#F7B239;" d="M468.271,229.701v45.168c-0.542,0.377-1.073,0.743-1.592,1.109
	c-6.875,4.823-10.012,7.029-18.68,7.029c-8.68,0-11.817-2.205-18.68-7.029c-9.281-6.522-21.994-15.449-45.333-15.449
	c-23.327,0-36.04,8.927-45.321,15.449c-6.864,4.823-10.001,7.029-18.669,7.029c-8.68,0-11.805-2.205-18.68-7.029
	c-9.281-6.522-21.994-15.449-45.321-15.449s-36.04,8.927-45.321,15.449c-6.875,4.823-10.012,7.029-18.68,7.029
	c-8.668,0-11.805-2.205-18.669-7.029c-9.281-6.522-21.994-15.449-45.321-15.449s-36.052,8.927-45.333,15.449
	c-6.864,4.823-12.54,0.9-18.669,7.029c-10.307,10.307-15.756-25.249-22.631-30.073c-0.531-0.366,2.889-22.855,2.335-23.233
	c43.375-71.879,122.224-119.936,212.289-119.936C346.07,109.765,424.919,157.822,468.271,229.701z"/>
<path style="fill:#995C0D;" d="M139.313,385.571l-29.561-117.112c-0.145,0.101-0.282,0.197-0.429,0.301
	c-9.281,6.522-21.994,15.461-45.321,15.461s-36.04-8.939-45.321-15.461c-2.583-1.804-4.635-3.243-6.651-4.34l30.58,121.151
	c2.477,9.8,11.286,16.664,21.393,16.664h96.704C150.599,402.235,141.789,395.372,139.313,385.571z"/>
<path style="fill:#E09B2D;" d="M512,243.723v0.967c0,8.314-4.729,15.767-12.029,19.73c-2.017,1.097-4.069,2.536-6.651,4.34
	c-9.281,6.522-21.994,15.461-45.321,15.461c-23.327,0-36.052-8.939-45.333-15.461c-6.864-4.823-10.001-7.029-18.68-7.029
	c-8.668,0-11.805,2.205-18.669,7.029c-9.281,6.522-21.994,15.461-45.321,15.461c-23.339,0-36.052-8.939-45.333-15.461
	c-6.864-4.823-10.001-7.029-18.669-7.029c-8.668,0-11.805,2.205-18.68,7.029c-9.281,6.522-21.994,15.461-45.321,15.461
	s-36.04-8.939-45.321-15.461c-6.864-4.823-10.001-7.029-18.669-7.029c-7.324,0-10.696,1.568-15.708,4.965
	c-0.92,0.625-1.899,1.321-2.972,2.064c-9.281,6.522-21.994,15.461-45.321,15.461s-36.04-8.939-45.321-15.461
	c-2.583-1.804-4.635-3.243-6.651-4.34C4.729,260.458,0,253.005,0,244.69v-0.967c0-17.383,18.586-28.48,33.882-20.213
	c3.738,2.017,6.958,4.187,9.824,6.191c0.554,0.377,1.085,0.755,1.616,1.12c6.875,4.823,10.012,7.029,18.68,7.029
	s11.805-2.205,18.669-7.029c8.361-5.873,19.506-13.692,38.682-15.19c2.111-0.177,4.328-0.259,6.651-0.259
	c23.327,0,36.04,8.927,45.321,15.449c6.864,4.823,10.001,7.029,18.669,7.029c8.668,0,11.805-2.205,18.68-7.029
	c9.281-6.522,21.994-15.449,45.321-15.449c23.327,0,36.04,8.927,45.321,15.449c6.875,4.823,10.001,7.029,18.68,7.029
	c8.668,0,11.805-2.205,18.669-7.029c9.281-6.522,21.994-15.449,45.321-15.449c23.339,0,36.052,8.927,45.333,15.449
	c6.864,4.823,10.001,7.029,18.68,7.029c8.668,0,11.805-2.205,18.68-7.029c0.519-0.366,1.05-0.731,1.592-1.109
	c2.878-2.005,6.097-4.175,9.847-6.203C493.426,215.243,512,226.34,512,243.723z"/>
<path style="fill:#CC8A29;" d="M112.294,266.696c-0.92,0.625-1.899,1.321-2.972,2.064c-9.281,6.522-21.994,15.461-45.321,15.461
	s-36.04-8.939-45.321-15.461c-2.583-1.804-4.635-3.243-6.651-4.34C4.729,260.458,0,253.005,0,244.69v-0.967
	c0-17.383,18.586-28.48,33.882-20.213c3.738,2.017,6.958,4.187,9.824,6.191c0.554,0.377,1.085,0.755,1.616,1.12
	c6.875,4.823,10.012,7.029,18.68,7.029s11.805-2.205,18.669-7.029c8.361-5.873,19.506-13.692,38.682-15.19
	C115.007,228.333,109.122,246.459,112.294,266.696z"/>
<path style="fill:#E09B2D;" d="M146.99,217.637c-5.437-1.392-11.687-2.264-18.987-2.264c-23.327,0-36.052,8.927-45.333,15.449
	c-6.864,4.823-10.001,7.029-18.669,7.029s-11.805-2.205-18.68-7.029c-0.531-0.366-1.061-0.743-1.616-1.12
	c43.375-71.879,122.224-119.936,212.289-119.936c16.345,0,32.313,1.58,47.762,4.611C238.87,127.042,183.053,165.028,146.99,217.637z
	"/>
<g>
	<path style="fill:#B27214;" d="M255.996,170.827c4.885,0,8.845-3.959,8.845-8.845v-19.67c0-4.886-3.96-8.845-8.845-8.845
		s-8.845,3.959-8.845,8.845v19.67C247.152,166.867,251.112,170.827,255.996,170.827z"/>
	<path style="fill:#B27214;" d="M305.984,161.437l16.859,7.024c1.112,0.465,2.264,0.683,3.398,0.683
		c3.465,0,6.753-2.048,8.168-5.445c1.879-4.51-0.254-9.688-4.763-11.567l-16.859-7.024c-4.51-1.882-9.687,0.254-11.567,4.762
		C299.342,154.381,301.474,159.558,305.984,161.437z"/>
	<path style="fill:#B27214;" d="M185.753,169.143c1.133,0,2.287-0.221,3.398-0.683l16.859-7.024
		c4.51-1.879,6.642-7.056,4.763-11.567c-1.88-4.51-7.058-6.641-11.567-4.762l-16.858,7.024c-4.51,1.879-6.642,7.056-4.763,11.567
		C179,167.096,182.288,169.143,185.753,169.143z"/>
</g>
</svg>